<mxfile host="app.diagrams.net" modified="2023-02-08T09:28:45.726Z" agent="5.0 (Windows NT 10.0; Win64; x64) AppleWebKit/537.36 (KHTML, like Gecko) Chrome/109.0.0.0 Safari/537.36" etag="h4c6ArCiCM7ld6mgM1zK" version="20.8.17" type="github" pages="2">
  <diagram name="Spring" id="7tGU-wnmGMP_LfBT0W3m">
    <mxGraphModel dx="1325" dy="764" grid="1" gridSize="10" guides="1" tooltips="1" connect="1" arrows="1" fold="1" page="1" pageScale="1" pageWidth="1169" pageHeight="827" math="0" shadow="0">
      <root>
        <mxCell id="0" />
        <mxCell id="1" parent="0" />
        <mxCell id="g8pmkgICrrftJU0dWQNJ-2" value="DB" style="shape=cylinder3;whiteSpace=wrap;html=1;boundedLbl=1;backgroundOutline=1;size=15;labelBackgroundColor=none;fillColor=#A8DADC;strokeColor=#457B9D;fontColor=#1D3557;rounded=1;fontStyle=1" parent="1" vertex="1">
          <mxGeometry x="900" y="115" width="60" height="80" as="geometry" />
        </mxCell>
        <mxCell id="g8pmkgICrrftJU0dWQNJ-3" value="DAO" style="whiteSpace=wrap;html=1;aspect=fixed;labelBackgroundColor=none;fillColor=#A8DADC;strokeColor=#457B9D;fontColor=#1D3557;rounded=1;fontStyle=1" parent="1" vertex="1">
          <mxGeometry x="770" y="115" width="80" height="80" as="geometry" />
        </mxCell>
        <mxCell id="g8pmkgICrrftJU0dWQNJ-4" value="Controller" style="whiteSpace=wrap;html=1;aspect=fixed;labelBackgroundColor=none;fillColor=#A8DADC;strokeColor=#457B9D;fontColor=#1D3557;rounded=1;fontStyle=1" parent="1" vertex="1">
          <mxGeometry x="510" y="115" width="80" height="80" as="geometry" />
        </mxCell>
        <mxCell id="g8pmkgICrrftJU0dWQNJ-5" value="Service" style="whiteSpace=wrap;html=1;aspect=fixed;labelBackgroundColor=none;fillColor=#A8DADC;strokeColor=#457B9D;fontColor=#1D3557;rounded=1;fontStyle=1" parent="1" vertex="1">
          <mxGeometry x="640" y="115" width="80" height="80" as="geometry" />
        </mxCell>
        <mxCell id="g8pmkgICrrftJU0dWQNJ-6" value="JSP" style="whiteSpace=wrap;html=1;aspect=fixed;labelBackgroundColor=none;fillColor=#A8DADC;strokeColor=#457B9D;fontColor=#1D3557;rounded=1;fontStyle=1" parent="1" vertex="1">
          <mxGeometry x="290" y="250" width="80" height="80" as="geometry" />
        </mxCell>
        <mxCell id="g8pmkgICrrftJU0dWQNJ-7" value="Dispather&lt;br&gt;Servlet&lt;br&gt;D.S" style="whiteSpace=wrap;html=1;aspect=fixed;labelBackgroundColor=none;fillColor=#A8DADC;strokeColor=#457B9D;fontColor=#1D3557;rounded=1;fontStyle=1" parent="1" vertex="1">
          <mxGeometry x="380" y="115" width="80" height="80" as="geometry" />
        </mxCell>
        <mxCell id="g8pmkgICrrftJU0dWQNJ-8" value="Internal&lt;br&gt;Resourse&lt;br&gt;ViewResolver" style="whiteSpace=wrap;html=1;aspect=fixed;labelBackgroundColor=none;fillColor=#A8DADC;strokeColor=#457B9D;fontColor=#1D3557;rounded=1;fontStyle=1" parent="1" vertex="1">
          <mxGeometry x="470" y="250" width="80" height="80" as="geometry" />
        </mxCell>
        <mxCell id="g8pmkgICrrftJU0dWQNJ-10" value="" style="endArrow=classic;html=1;rounded=1;labelBackgroundColor=none;strokeColor=#457B9D;fontColor=default;" parent="1" edge="1">
          <mxGeometry relative="1" as="geometry">
            <mxPoint x="450" y="130" as="sourcePoint" />
            <mxPoint x="530" y="130" as="targetPoint" />
          </mxGeometry>
        </mxCell>
        <mxCell id="g8pmkgICrrftJU0dWQNJ-11" value="요청" style="edgeLabel;resizable=0;html=1;align=center;verticalAlign=middle;labelBackgroundColor=none;fontColor=#1D3557;rounded=1;" parent="g8pmkgICrrftJU0dWQNJ-10" connectable="0" vertex="1">
          <mxGeometry relative="1" as="geometry" />
        </mxCell>
        <mxCell id="g8pmkgICrrftJU0dWQNJ-12" value="" style="endArrow=classic;html=1;rounded=1;labelBackgroundColor=none;strokeColor=#457B9D;fontColor=default;" parent="1" edge="1">
          <mxGeometry relative="1" as="geometry">
            <mxPoint x="580" y="130" as="sourcePoint" />
            <mxPoint x="660" y="130" as="targetPoint" />
          </mxGeometry>
        </mxCell>
        <mxCell id="g8pmkgICrrftJU0dWQNJ-13" value="요청" style="edgeLabel;resizable=0;html=1;align=center;verticalAlign=middle;labelBackgroundColor=none;fontColor=#1D3557;rounded=1;" parent="g8pmkgICrrftJU0dWQNJ-12" connectable="0" vertex="1">
          <mxGeometry relative="1" as="geometry" />
        </mxCell>
        <mxCell id="g8pmkgICrrftJU0dWQNJ-14" value="" style="endArrow=classic;html=1;rounded=1;labelBackgroundColor=none;strokeColor=#457B9D;fontColor=default;" parent="1" edge="1">
          <mxGeometry relative="1" as="geometry">
            <mxPoint x="710" y="130" as="sourcePoint" />
            <mxPoint x="790" y="130" as="targetPoint" />
          </mxGeometry>
        </mxCell>
        <mxCell id="g8pmkgICrrftJU0dWQNJ-15" value="요청" style="edgeLabel;resizable=0;html=1;align=center;verticalAlign=middle;labelBackgroundColor=none;fontColor=#1D3557;rounded=1;" parent="g8pmkgICrrftJU0dWQNJ-14" connectable="0" vertex="1">
          <mxGeometry relative="1" as="geometry" />
        </mxCell>
        <mxCell id="g8pmkgICrrftJU0dWQNJ-16" value="" style="endArrow=classic;html=1;rounded=1;labelBackgroundColor=none;strokeColor=#457B9D;fontColor=default;" parent="1" edge="1">
          <mxGeometry relative="1" as="geometry">
            <mxPoint x="840" y="130" as="sourcePoint" />
            <mxPoint x="920" y="130" as="targetPoint" />
          </mxGeometry>
        </mxCell>
        <mxCell id="g8pmkgICrrftJU0dWQNJ-17" value="요청" style="edgeLabel;resizable=0;html=1;align=center;verticalAlign=middle;labelBackgroundColor=none;fontColor=#1D3557;rounded=1;" parent="g8pmkgICrrftJU0dWQNJ-16" connectable="0" vertex="1">
          <mxGeometry relative="1" as="geometry" />
        </mxCell>
        <mxCell id="g8pmkgICrrftJU0dWQNJ-19" value="" style="endArrow=classic;html=1;rounded=1;labelBackgroundColor=none;strokeColor=#457B9D;fontColor=default;" parent="1" edge="1">
          <mxGeometry relative="1" as="geometry">
            <mxPoint x="910" y="180" as="sourcePoint" />
            <mxPoint x="830" y="180" as="targetPoint" />
          </mxGeometry>
        </mxCell>
        <mxCell id="g8pmkgICrrftJU0dWQNJ-20" value="리턴" style="edgeLabel;resizable=0;html=1;align=center;verticalAlign=middle;labelBackgroundColor=none;fontColor=#1D3557;rounded=1;" parent="g8pmkgICrrftJU0dWQNJ-19" connectable="0" vertex="1">
          <mxGeometry relative="1" as="geometry" />
        </mxCell>
        <mxCell id="g8pmkgICrrftJU0dWQNJ-21" value="" style="endArrow=classic;html=1;rounded=1;labelBackgroundColor=none;strokeColor=#457B9D;fontColor=default;" parent="1" edge="1">
          <mxGeometry relative="1" as="geometry">
            <mxPoint x="780" y="180" as="sourcePoint" />
            <mxPoint x="700" y="180" as="targetPoint" />
          </mxGeometry>
        </mxCell>
        <mxCell id="g8pmkgICrrftJU0dWQNJ-22" value="리턴" style="edgeLabel;resizable=0;html=1;align=center;verticalAlign=middle;labelBackgroundColor=none;fontColor=#1D3557;rounded=1;" parent="g8pmkgICrrftJU0dWQNJ-21" connectable="0" vertex="1">
          <mxGeometry relative="1" as="geometry" />
        </mxCell>
        <mxCell id="g8pmkgICrrftJU0dWQNJ-23" value="" style="endArrow=classic;html=1;rounded=1;labelBackgroundColor=none;strokeColor=#457B9D;fontColor=default;" parent="1" edge="1">
          <mxGeometry relative="1" as="geometry">
            <mxPoint x="650" y="180" as="sourcePoint" />
            <mxPoint x="570" y="180" as="targetPoint" />
          </mxGeometry>
        </mxCell>
        <mxCell id="g8pmkgICrrftJU0dWQNJ-24" value="리턴" style="edgeLabel;resizable=0;html=1;align=center;verticalAlign=middle;labelBackgroundColor=none;fontColor=#1D3557;rounded=1;" parent="g8pmkgICrrftJU0dWQNJ-23" connectable="0" vertex="1">
          <mxGeometry relative="1" as="geometry" />
        </mxCell>
        <mxCell id="g8pmkgICrrftJU0dWQNJ-25" value="" style="endArrow=classic;html=1;rounded=1;exitX=0.375;exitY=0.813;exitDx=0;exitDy=0;exitPerimeter=0;entryX=0.625;entryY=0.813;entryDx=0;entryDy=0;entryPerimeter=0;labelBackgroundColor=none;strokeColor=#457B9D;fontColor=default;" parent="1" source="g8pmkgICrrftJU0dWQNJ-4" target="g8pmkgICrrftJU0dWQNJ-7" edge="1">
          <mxGeometry relative="1" as="geometry">
            <mxPoint x="530" y="180" as="sourcePoint" />
            <mxPoint x="440" y="180" as="targetPoint" />
          </mxGeometry>
        </mxCell>
        <mxCell id="g8pmkgICrrftJU0dWQNJ-26" value="ModelAndView" style="edgeLabel;resizable=0;html=1;align=center;verticalAlign=middle;labelBackgroundColor=none;fontColor=#1D3557;rounded=1;" parent="g8pmkgICrrftJU0dWQNJ-25" connectable="0" vertex="1">
          <mxGeometry relative="1" as="geometry" />
        </mxCell>
        <mxCell id="g8pmkgICrrftJU0dWQNJ-28" value="" style="endArrow=classic;html=1;rounded=1;exitX=1;exitY=1;exitDx=0;exitDy=0;entryX=0.6;entryY=0.013;entryDx=0;entryDy=0;labelBorderColor=#FFFFFF;entryPerimeter=0;labelBackgroundColor=none;strokeColor=#457B9D;fontColor=default;" parent="1" source="g8pmkgICrrftJU0dWQNJ-7" target="g8pmkgICrrftJU0dWQNJ-8" edge="1">
          <mxGeometry relative="1" as="geometry">
            <mxPoint x="430" y="210" as="sourcePoint" />
            <mxPoint x="530" y="210" as="targetPoint" />
          </mxGeometry>
        </mxCell>
        <mxCell id="g8pmkgICrrftJU0dWQNJ-29" value="View" style="edgeLabel;resizable=0;html=1;align=center;verticalAlign=middle;labelBackgroundColor=none;fontColor=#1D3557;rounded=1;" parent="g8pmkgICrrftJU0dWQNJ-28" connectable="0" vertex="1">
          <mxGeometry relative="1" as="geometry">
            <mxPoint x="15" as="offset" />
          </mxGeometry>
        </mxCell>
        <mxCell id="g8pmkgICrrftJU0dWQNJ-34" value="" style="endArrow=classic;html=1;rounded=1;labelBorderColor=#FFFFFF;labelBackgroundColor=none;strokeColor=#457B9D;fontColor=default;" parent="1" target="g8pmkgICrrftJU0dWQNJ-7" edge="1">
          <mxGeometry width="50" height="50" relative="1" as="geometry">
            <mxPoint x="470" y="250" as="sourcePoint" />
            <mxPoint x="400" y="190" as="targetPoint" />
          </mxGeometry>
        </mxCell>
        <mxCell id="g8pmkgICrrftJU0dWQNJ-35" value="Prefix+ViewName+suffix" style="text;html=1;align=center;verticalAlign=middle;resizable=0;points=[];autosize=1;strokeColor=none;fillColor=none;labelBackgroundColor=none;fontColor=#1D3557;rounded=1;" parent="1" vertex="1">
          <mxGeometry x="550" y="270" width="150" height="30" as="geometry" />
        </mxCell>
        <mxCell id="g8pmkgICrrftJU0dWQNJ-36" value="" style="endArrow=classic;html=1;rounded=1;labelBorderColor=#FFFFFF;entryX=0.875;entryY=0;entryDx=0;entryDy=0;entryPerimeter=0;exitX=0.25;exitY=1;exitDx=0;exitDy=0;labelBackgroundColor=none;strokeColor=#457B9D;fontColor=default;" parent="1" source="g8pmkgICrrftJU0dWQNJ-7" target="g8pmkgICrrftJU0dWQNJ-6" edge="1">
          <mxGeometry relative="1" as="geometry">
            <mxPoint x="400" y="200" as="sourcePoint" />
            <mxPoint x="350" y="250" as="targetPoint" />
          </mxGeometry>
        </mxCell>
        <mxCell id="g8pmkgICrrftJU0dWQNJ-37" value="Model" style="edgeLabel;resizable=0;html=1;align=center;verticalAlign=middle;labelBackgroundColor=none;fontColor=#1D3557;rounded=1;" parent="g8pmkgICrrftJU0dWQNJ-36" connectable="0" vertex="1">
          <mxGeometry relative="1" as="geometry">
            <mxPoint x="8" y="17" as="offset" />
          </mxGeometry>
        </mxCell>
        <mxCell id="g8pmkgICrrftJU0dWQNJ-38" value="" style="endArrow=classic;html=1;rounded=1;labelBorderColor=#FFFFFF;exitX=0.25;exitY=0;exitDx=0;exitDy=0;labelBackgroundColor=none;strokeColor=#457B9D;fontColor=default;" parent="1" source="g8pmkgICrrftJU0dWQNJ-6" edge="1">
          <mxGeometry width="50" height="50" relative="1" as="geometry">
            <mxPoint x="330" y="240" as="sourcePoint" />
            <mxPoint x="380" y="190" as="targetPoint" />
          </mxGeometry>
        </mxCell>
        <mxCell id="g8pmkgICrrftJU0dWQNJ-39" value="" style="endArrow=classic;html=1;rounded=1;exitX=1.025;exitY=0.2;exitDx=0;exitDy=0;exitPerimeter=0;labelBackgroundColor=none;strokeColor=#457B9D;fontColor=default;" parent="1" source="g8pmkgICrrftJU0dWQNJ-44" edge="1">
          <mxGeometry relative="1" as="geometry">
            <mxPoint x="310" y="130" as="sourcePoint" />
            <mxPoint x="380" y="130" as="targetPoint" />
          </mxGeometry>
        </mxCell>
        <mxCell id="g8pmkgICrrftJU0dWQNJ-40" value="요청" style="edgeLabel;resizable=0;html=1;align=center;verticalAlign=middle;labelBackgroundColor=none;fontColor=#1D3557;rounded=1;" parent="g8pmkgICrrftJU0dWQNJ-39" connectable="0" vertex="1">
          <mxGeometry relative="1" as="geometry" />
        </mxCell>
        <mxCell id="g8pmkgICrrftJU0dWQNJ-41" value="" style="endArrow=classic;html=1;rounded=1;entryX=0.975;entryY=0;entryDx=0;entryDy=0;entryPerimeter=0;labelBackgroundColor=none;strokeColor=#457B9D;fontColor=default;" parent="1" source="g8pmkgICrrftJU0dWQNJ-7" target="g8pmkgICrrftJU0dWQNJ-45" edge="1">
          <mxGeometry relative="1" as="geometry">
            <mxPoint x="390" y="180" as="sourcePoint" />
            <mxPoint x="310" y="180" as="targetPoint" />
          </mxGeometry>
        </mxCell>
        <mxCell id="g8pmkgICrrftJU0dWQNJ-42" value="리턴" style="edgeLabel;resizable=0;html=1;align=center;verticalAlign=middle;labelBackgroundColor=none;fontColor=#1D3557;rounded=1;" parent="g8pmkgICrrftJU0dWQNJ-41" connectable="0" vertex="1">
          <mxGeometry relative="1" as="geometry" />
        </mxCell>
        <mxCell id="g8pmkgICrrftJU0dWQNJ-43" value="요청" style="swimlane;fontStyle=1;childLayout=stackLayout;horizontal=1;startSize=30;horizontalStack=0;resizeParent=1;resizeParentMax=0;resizeLast=0;collapsible=1;marginBottom=0;whiteSpace=wrap;html=1;labelBackgroundColor=none;fillColor=#A8DADC;strokeColor=#457B9D;fontColor=#1D3557;rounded=1;" parent="1" vertex="1">
          <mxGeometry x="180" y="95" width="80" height="120" as="geometry" />
        </mxCell>
        <mxCell id="g8pmkgICrrftJU0dWQNJ-44" value="URL(ip:port)" style="text;strokeColor=none;fillColor=none;align=left;verticalAlign=middle;spacingLeft=4;spacingRight=4;overflow=hidden;points=[[0,0.5],[1,0.5]];portConstraint=eastwest;rotatable=0;whiteSpace=wrap;html=1;labelBackgroundColor=none;fontColor=#1D3557;rounded=1;" parent="g8pmkgICrrftJU0dWQNJ-43" vertex="1">
          <mxGeometry y="30" width="80" height="30" as="geometry" />
        </mxCell>
        <mxCell id="g8pmkgICrrftJU0dWQNJ-45" value="Method" style="text;strokeColor=none;fillColor=none;align=left;verticalAlign=middle;spacingLeft=4;spacingRight=4;overflow=hidden;points=[[0,0.5],[1,0.5]];portConstraint=eastwest;rotatable=0;whiteSpace=wrap;html=1;labelBackgroundColor=none;fontColor=#1D3557;rounded=1;" parent="g8pmkgICrrftJU0dWQNJ-43" vertex="1">
          <mxGeometry y="60" width="80" height="30" as="geometry" />
        </mxCell>
        <mxCell id="g8pmkgICrrftJU0dWQNJ-46" value="parameter" style="text;strokeColor=none;fillColor=none;align=left;verticalAlign=middle;spacingLeft=4;spacingRight=4;overflow=hidden;points=[[0,0.5],[1,0.5]];portConstraint=eastwest;rotatable=0;whiteSpace=wrap;html=1;labelBackgroundColor=none;fontColor=#1D3557;rounded=1;" parent="g8pmkgICrrftJU0dWQNJ-43" vertex="1">
          <mxGeometry y="90" width="80" height="30" as="geometry" />
        </mxCell>
        <mxCell id="g8pmkgICrrftJU0dWQNJ-47" value="Request" style="ellipse;whiteSpace=wrap;html=1;aspect=fixed;labelBackgroundColor=none;fillColor=#A8DADC;strokeColor=#457B9D;fontColor=#1D3557;rounded=1;fontStyle=1" parent="1" vertex="1">
          <mxGeometry x="270" y="80" width="50" height="50" as="geometry" />
        </mxCell>
        <mxCell id="g8pmkgICrrftJU0dWQNJ-48" value="Response" style="ellipse;whiteSpace=wrap;html=1;aspect=fixed;labelBackgroundColor=none;fillColor=#A8DADC;strokeColor=#457B9D;fontColor=#1D3557;rounded=1;fontStyle=1" parent="1" vertex="1">
          <mxGeometry x="330" y="80" width="50" height="50" as="geometry" />
        </mxCell>
        <mxCell id="g8pmkgICrrftJU0dWQNJ-52" value="&lt;br&gt;Redirect" style="text;html=1;align=center;verticalAlign=middle;resizable=0;points=[];autosize=1;strokeColor=none;fillColor=none;labelBackgroundColor=none;fontColor=#1D3557;rounded=1;" parent="1" vertex="1">
          <mxGeometry x="280" y="155" width="70" height="40" as="geometry" />
        </mxCell>
        <mxCell id="g8pmkgICrrftJU0dWQNJ-56" value="" style="shape=link;html=1;rounded=1;labelBorderColor=#FFFFFF;labelBackgroundColor=none;strokeColor=#457B9D;fontColor=default;" parent="1" edge="1">
          <mxGeometry width="100" relative="1" as="geometry">
            <mxPoint x="260" y="190" as="sourcePoint" />
            <mxPoint x="380" y="190" as="targetPoint" />
          </mxGeometry>
        </mxCell>
        <mxCell id="epKOJJUxBnLH7mvrFBm9-5" value="" style="edgeStyle=orthogonalEdgeStyle;rounded=0;orthogonalLoop=1;jettySize=auto;html=1;" edge="1" parent="1" source="epKOJJUxBnLH7mvrFBm9-1" target="epKOJJUxBnLH7mvrFBm9-2">
          <mxGeometry relative="1" as="geometry" />
        </mxCell>
        <mxCell id="epKOJJUxBnLH7mvrFBm9-6" value="" style="edgeStyle=orthogonalEdgeStyle;rounded=0;orthogonalLoop=1;jettySize=auto;html=1;" edge="1" parent="1" source="epKOJJUxBnLH7mvrFBm9-1" target="epKOJJUxBnLH7mvrFBm9-3">
          <mxGeometry relative="1" as="geometry" />
        </mxCell>
        <mxCell id="epKOJJUxBnLH7mvrFBm9-1" value="List Page" style="whiteSpace=wrap;html=1;aspect=fixed;" vertex="1" parent="1">
          <mxGeometry x="180" y="500" width="80" height="80" as="geometry" />
        </mxCell>
        <mxCell id="epKOJJUxBnLH7mvrFBm9-16" value="" style="edgeStyle=orthogonalEdgeStyle;curved=1;orthogonalLoop=1;jettySize=auto;html=1;targetPerimeterSpacing=0;" edge="1" parent="1" source="epKOJJUxBnLH7mvrFBm9-2" target="epKOJJUxBnLH7mvrFBm9-12">
          <mxGeometry relative="1" as="geometry" />
        </mxCell>
        <mxCell id="epKOJJUxBnLH7mvrFBm9-2" value="Detail Page" style="whiteSpace=wrap;html=1;aspect=fixed;" vertex="1" parent="1">
          <mxGeometry x="315" y="500" width="80" height="80" as="geometry" />
        </mxCell>
        <mxCell id="epKOJJUxBnLH7mvrFBm9-3" value="Add Page" style="whiteSpace=wrap;html=1;aspect=fixed;" vertex="1" parent="1">
          <mxGeometry x="180" y="620" width="80" height="80" as="geometry" />
        </mxCell>
        <mxCell id="epKOJJUxBnLH7mvrFBm9-10" value="" style="endArrow=classic;html=1;targetPerimeterSpacing=7;curved=1;entryX=0;entryY=0.5;entryDx=0;entryDy=0;exitX=0;exitY=0.5;exitDx=0;exitDy=0;dashed=1;" edge="1" parent="1" source="epKOJJUxBnLH7mvrFBm9-3" target="epKOJJUxBnLH7mvrFBm9-1">
          <mxGeometry width="50" height="50" relative="1" as="geometry">
            <mxPoint x="480" y="440" as="sourcePoint" />
            <mxPoint x="530" y="390" as="targetPoint" />
            <Array as="points">
              <mxPoint x="120" y="600" />
            </Array>
          </mxGeometry>
        </mxCell>
        <mxCell id="epKOJJUxBnLH7mvrFBm9-19" value="redirect" style="edgeLabel;html=1;align=center;verticalAlign=middle;resizable=0;points=[];" vertex="1" connectable="0" parent="epKOJJUxBnLH7mvrFBm9-10">
          <mxGeometry x="-0.2583" y="-19" relative="1" as="geometry">
            <mxPoint as="offset" />
          </mxGeometry>
        </mxCell>
        <mxCell id="epKOJJUxBnLH7mvrFBm9-11" value="" style="endArrow=classic;html=1;dashed=1;targetPerimeterSpacing=7;exitX=1;exitY=0.5;exitDx=0;exitDy=0;entryX=0.5;entryY=0;entryDx=0;entryDy=0;rounded=0;" edge="1" parent="1" source="epKOJJUxBnLH7mvrFBm9-2" target="epKOJJUxBnLH7mvrFBm9-1">
          <mxGeometry width="50" height="50" relative="1" as="geometry">
            <mxPoint x="480" y="440" as="sourcePoint" />
            <mxPoint x="530" y="390" as="targetPoint" />
            <Array as="points">
              <mxPoint x="440" y="540" />
              <mxPoint x="440" y="460" />
              <mxPoint x="220" y="460" />
            </Array>
          </mxGeometry>
        </mxCell>
        <mxCell id="epKOJJUxBnLH7mvrFBm9-18" value="Delete" style="edgeLabel;html=1;align=center;verticalAlign=middle;resizable=0;points=[];" vertex="1" connectable="0" parent="epKOJJUxBnLH7mvrFBm9-11">
          <mxGeometry x="0.2584" y="23" relative="1" as="geometry">
            <mxPoint x="7" y="-23" as="offset" />
          </mxGeometry>
        </mxCell>
        <mxCell id="epKOJJUxBnLH7mvrFBm9-12" value="Update Page" style="whiteSpace=wrap;html=1;aspect=fixed;" vertex="1" parent="1">
          <mxGeometry x="315" y="620" width="80" height="80" as="geometry" />
        </mxCell>
        <mxCell id="epKOJJUxBnLH7mvrFBm9-17" value="" style="endArrow=classic;html=1;targetPerimeterSpacing=0;exitX=1;exitY=0.5;exitDx=0;exitDy=0;dashed=1;rounded=0;" edge="1" parent="1" source="epKOJJUxBnLH7mvrFBm9-12">
          <mxGeometry width="50" height="50" relative="1" as="geometry">
            <mxPoint x="480" y="440" as="sourcePoint" />
            <mxPoint x="440" y="540" as="targetPoint" />
            <Array as="points">
              <mxPoint x="440" y="660" />
            </Array>
          </mxGeometry>
        </mxCell>
        <mxCell id="epKOJJUxBnLH7mvrFBm9-20" value="Update" style="edgeLabel;html=1;align=center;verticalAlign=middle;resizable=0;points=[];" vertex="1" connectable="0" parent="epKOJJUxBnLH7mvrFBm9-17">
          <mxGeometry x="-0.3881" relative="1" as="geometry">
            <mxPoint y="-55" as="offset" />
          </mxGeometry>
        </mxCell>
      </root>
    </mxGraphModel>
  </diagram>
  <diagram id="teZd0_XuhmlN_IEeYQ_v" name="Class">
    <mxGraphModel dx="1572" dy="637" grid="1" gridSize="10" guides="1" tooltips="1" connect="1" arrows="1" fold="1" page="1" pageScale="1" pageWidth="1169" pageHeight="827" math="0" shadow="0">
      <root>
        <mxCell id="0" />
        <mxCell id="1" parent="0" />
        <mxCell id="cBSK1kLoFD2XCnEhKmSQ-1" value="ProductDAO" style="swimlane;fontStyle=1;align=center;verticalAlign=top;childLayout=stackLayout;horizontal=1;startSize=26;horizontalStack=0;resizeParent=1;resizeParentMax=0;resizeLast=0;collapsible=1;marginBottom=0;fillColor=#dae8fc;strokeColor=#6c8ebf;" parent="1" vertex="1">
          <mxGeometry x="850" y="90" width="270" height="130" as="geometry" />
        </mxCell>
        <mxCell id="cBSK1kLoFD2XCnEhKmSQ-2" value="- sqlSession : SqlSession&#xa;- NAMESPACE : String&#xa;" style="text;strokeColor=none;fillColor=none;align=left;verticalAlign=top;spacingLeft=4;spacingRight=4;overflow=hidden;rotatable=0;points=[[0,0.5],[1,0.5]];portConstraint=eastwest;" parent="cBSK1kLoFD2XCnEhKmSQ-1" vertex="1">
          <mxGeometry y="26" width="270" height="34" as="geometry" />
        </mxCell>
        <mxCell id="cBSK1kLoFD2XCnEhKmSQ-3" value="" style="line;strokeWidth=1;fillColor=none;align=left;verticalAlign=middle;spacingTop=-1;spacingLeft=3;spacingRight=3;rotatable=0;labelPosition=right;points=[];portConstraint=eastwest;strokeColor=inherit;" parent="cBSK1kLoFD2XCnEhKmSQ-1" vertex="1">
          <mxGeometry y="60" width="270" height="8" as="geometry" />
        </mxCell>
        <mxCell id="cBSK1kLoFD2XCnEhKmSQ-4" value="+ getProductList() : List&lt;productDTO&gt;&#xa;+ getProductDetail(ProductDTO) : ProductDTO&#xa;+ setProductAdd(ProductDTO) : int" style="text;strokeColor=none;fillColor=none;align=left;verticalAlign=top;spacingLeft=4;spacingRight=4;overflow=hidden;rotatable=0;points=[[0,0.5],[1,0.5]];portConstraint=eastwest;" parent="cBSK1kLoFD2XCnEhKmSQ-1" vertex="1">
          <mxGeometry y="68" width="270" height="62" as="geometry" />
        </mxCell>
        <mxCell id="cBSK1kLoFD2XCnEhKmSQ-5" value="ProductService" style="swimlane;fontStyle=1;align=center;verticalAlign=top;childLayout=stackLayout;horizontal=1;startSize=26;horizontalStack=0;resizeParent=1;resizeParentMax=0;resizeLast=0;collapsible=1;marginBottom=0;fillColor=#d5e8d4;strokeColor=#82b366;" parent="1" vertex="1">
          <mxGeometry x="440" y="95" width="350" height="120" as="geometry" />
        </mxCell>
        <mxCell id="cBSK1kLoFD2XCnEhKmSQ-6" value="- productDAO : ProductDAO" style="text;strokeColor=none;fillColor=none;align=left;verticalAlign=top;spacingLeft=4;spacingRight=4;overflow=hidden;rotatable=0;points=[[0,0.5],[1,0.5]];portConstraint=eastwest;" parent="cBSK1kLoFD2XCnEhKmSQ-5" vertex="1">
          <mxGeometry y="26" width="350" height="26" as="geometry" />
        </mxCell>
        <mxCell id="cBSK1kLoFD2XCnEhKmSQ-7" value="" style="line;strokeWidth=1;fillColor=none;align=left;verticalAlign=middle;spacingTop=-1;spacingLeft=3;spacingRight=3;rotatable=0;labelPosition=right;points=[];portConstraint=eastwest;strokeColor=inherit;" parent="cBSK1kLoFD2XCnEhKmSQ-5" vertex="1">
          <mxGeometry y="52" width="350" height="8" as="geometry" />
        </mxCell>
        <mxCell id="cBSK1kLoFD2XCnEhKmSQ-8" value="+ getProductList() : List&lt;productDTO&gt;&#xa;+ getProductDetail(ProductDTO) : ProductDTO&#xa;+ setProductAdd(ProductDTO, List&lt;ProductOptionDTO&gt;) : int" style="text;strokeColor=none;fillColor=none;align=left;verticalAlign=top;spacingLeft=4;spacingRight=4;overflow=hidden;rotatable=0;points=[[0,0.5],[1,0.5]];portConstraint=eastwest;" parent="cBSK1kLoFD2XCnEhKmSQ-5" vertex="1">
          <mxGeometry y="60" width="350" height="60" as="geometry" />
        </mxCell>
        <mxCell id="cBSK1kLoFD2XCnEhKmSQ-9" value="ProductController" style="swimlane;fontStyle=1;align=center;verticalAlign=top;childLayout=stackLayout;horizontal=1;startSize=26;horizontalStack=0;resizeParent=1;resizeParentMax=0;resizeLast=0;collapsible=1;marginBottom=0;fillColor=#ffe6cc;strokeColor=#d79b00;" parent="1" vertex="1">
          <mxGeometry x="30" y="85" width="350" height="130" as="geometry" />
        </mxCell>
        <mxCell id="cBSK1kLoFD2XCnEhKmSQ-10" value="-productService : ProductService" style="text;strokeColor=none;fillColor=none;align=left;verticalAlign=top;spacingLeft=4;spacingRight=4;overflow=hidden;rotatable=0;points=[[0,0.5],[1,0.5]];portConstraint=eastwest;" parent="cBSK1kLoFD2XCnEhKmSQ-9" vertex="1">
          <mxGeometry y="26" width="350" height="26" as="geometry" />
        </mxCell>
        <mxCell id="cBSK1kLoFD2XCnEhKmSQ-11" value="" style="line;strokeWidth=1;fillColor=none;align=left;verticalAlign=middle;spacingTop=-1;spacingLeft=3;spacingRight=3;rotatable=0;labelPosition=right;points=[];portConstraint=eastwest;strokeColor=inherit;" parent="cBSK1kLoFD2XCnEhKmSQ-9" vertex="1">
          <mxGeometry y="52" width="350" height="8" as="geometry" />
        </mxCell>
        <mxCell id="cBSK1kLoFD2XCnEhKmSQ-12" value="+ getProductList() : ModelAndView&#xa;+ getProductDetail(ProductDTO) : String&#xa;+ setProductAdd(ProductDTO) : String&#xa;+ setProductAdd() : void" style="text;strokeColor=none;fillColor=none;align=left;verticalAlign=top;spacingLeft=4;spacingRight=4;overflow=hidden;rotatable=0;points=[[0,0.5],[1,0.5]];portConstraint=eastwest;" parent="cBSK1kLoFD2XCnEhKmSQ-9" vertex="1">
          <mxGeometry y="60" width="350" height="70" as="geometry" />
        </mxCell>
        <mxCell id="cBSK1kLoFD2XCnEhKmSQ-13" value="" style="edgeStyle=orthogonalEdgeStyle;rounded=0;orthogonalLoop=1;jettySize=auto;html=1;" parent="1" target="cBSK1kLoFD2XCnEhKmSQ-8" edge="1">
          <mxGeometry relative="1" as="geometry">
            <mxPoint x="380" y="160" as="sourcePoint" />
            <Array as="points">
              <mxPoint x="400" y="160" />
              <mxPoint x="400" y="160" />
            </Array>
          </mxGeometry>
        </mxCell>
        <mxCell id="cBSK1kLoFD2XCnEhKmSQ-14" value="" style="edgeStyle=orthogonalEdgeStyle;rounded=0;orthogonalLoop=1;jettySize=auto;html=1;" parent="1" source="cBSK1kLoFD2XCnEhKmSQ-8" target="cBSK1kLoFD2XCnEhKmSQ-4" edge="1">
          <mxGeometry relative="1" as="geometry">
            <Array as="points">
              <mxPoint x="810" y="160" />
              <mxPoint x="810" y="160" />
            </Array>
          </mxGeometry>
        </mxCell>
        <mxCell id="cBSK1kLoFD2XCnEhKmSQ-15" value="참조" style="text;html=1;align=center;verticalAlign=middle;resizable=0;points=[];autosize=1;strokeColor=none;fillColor=none;" parent="1" vertex="1">
          <mxGeometry x="380" y="160" width="50" height="30" as="geometry" />
        </mxCell>
        <mxCell id="cBSK1kLoFD2XCnEhKmSQ-16" value="참조" style="text;html=1;align=center;verticalAlign=middle;resizable=0;points=[];autosize=1;strokeColor=none;fillColor=none;" parent="1" vertex="1">
          <mxGeometry x="790" y="160" width="50" height="30" as="geometry" />
        </mxCell>
        <mxCell id="cBSK1kLoFD2XCnEhKmSQ-17" value="Product" style="text;html=1;align=center;verticalAlign=middle;resizable=0;points=[];autosize=1;strokeColor=none;fillColor=none;fontStyle=1" parent="1" vertex="1">
          <mxGeometry x="25" y="50" width="70" height="30" as="geometry" />
        </mxCell>
        <mxCell id="cBSK1kLoFD2XCnEhKmSQ-18" value="Member" style="text;html=1;align=center;verticalAlign=middle;resizable=0;points=[];autosize=1;strokeColor=none;fillColor=none;fontStyle=1" parent="1" vertex="1">
          <mxGeometry x="25" y="280" width="70" height="30" as="geometry" />
        </mxCell>
        <mxCell id="cBSK1kLoFD2XCnEhKmSQ-19" value="MemberDAO" style="swimlane;fontStyle=1;align=center;verticalAlign=top;childLayout=stackLayout;horizontal=1;startSize=26;horizontalStack=0;resizeParent=1;resizeParentMax=0;resizeLast=0;collapsible=1;marginBottom=0;fillColor=#dae8fc;strokeColor=#6c8ebf;" parent="1" vertex="1">
          <mxGeometry x="850" y="346" width="270" height="130" as="geometry" />
        </mxCell>
        <mxCell id="cBSK1kLoFD2XCnEhKmSQ-20" value="- sqlSession : SqlSession&#xa;- NAMESPACE : String&#xa;" style="text;strokeColor=none;fillColor=none;align=left;verticalAlign=top;spacingLeft=4;spacingRight=4;overflow=hidden;rotatable=0;points=[[0,0.5],[1,0.5]];portConstraint=eastwest;" parent="cBSK1kLoFD2XCnEhKmSQ-19" vertex="1">
          <mxGeometry y="26" width="270" height="34" as="geometry" />
        </mxCell>
        <mxCell id="cBSK1kLoFD2XCnEhKmSQ-21" value="" style="line;strokeWidth=1;fillColor=none;align=left;verticalAlign=middle;spacingTop=-1;spacingLeft=3;spacingRight=3;rotatable=0;labelPosition=right;points=[];portConstraint=eastwest;strokeColor=inherit;" parent="cBSK1kLoFD2XCnEhKmSQ-19" vertex="1">
          <mxGeometry y="60" width="270" height="8" as="geometry" />
        </mxCell>
        <mxCell id="cBSK1kLoFD2XCnEhKmSQ-22" value="+ memberJoin(MemberDTO) : int&#xa;" style="text;strokeColor=none;fillColor=none;align=left;verticalAlign=top;spacingLeft=4;spacingRight=4;overflow=hidden;rotatable=0;points=[[0,0.5],[1,0.5]];portConstraint=eastwest;" parent="cBSK1kLoFD2XCnEhKmSQ-19" vertex="1">
          <mxGeometry y="68" width="270" height="62" as="geometry" />
        </mxCell>
        <mxCell id="cBSK1kLoFD2XCnEhKmSQ-23" value="MemberService" style="swimlane;fontStyle=1;align=center;verticalAlign=top;childLayout=stackLayout;horizontal=1;startSize=26;horizontalStack=0;resizeParent=1;resizeParentMax=0;resizeLast=0;collapsible=1;marginBottom=0;fillColor=#d5e8d4;strokeColor=#82b366;" parent="1" vertex="1">
          <mxGeometry x="440" y="351" width="350" height="120" as="geometry" />
        </mxCell>
        <mxCell id="cBSK1kLoFD2XCnEhKmSQ-24" value="- memberDAO : MemberDAO" style="text;strokeColor=none;fillColor=none;align=left;verticalAlign=top;spacingLeft=4;spacingRight=4;overflow=hidden;rotatable=0;points=[[0,0.5],[1,0.5]];portConstraint=eastwest;" parent="cBSK1kLoFD2XCnEhKmSQ-23" vertex="1">
          <mxGeometry y="26" width="350" height="26" as="geometry" />
        </mxCell>
        <mxCell id="cBSK1kLoFD2XCnEhKmSQ-25" value="" style="line;strokeWidth=1;fillColor=none;align=left;verticalAlign=middle;spacingTop=-1;spacingLeft=3;spacingRight=3;rotatable=0;labelPosition=right;points=[];portConstraint=eastwest;strokeColor=inherit;" parent="cBSK1kLoFD2XCnEhKmSQ-23" vertex="1">
          <mxGeometry y="52" width="350" height="8" as="geometry" />
        </mxCell>
        <mxCell id="cBSK1kLoFD2XCnEhKmSQ-26" value="+ memberJoin(MemberDTO) : int&#xa;" style="text;strokeColor=none;fillColor=none;align=left;verticalAlign=top;spacingLeft=4;spacingRight=4;overflow=hidden;rotatable=0;points=[[0,0.5],[1,0.5]];portConstraint=eastwest;" parent="cBSK1kLoFD2XCnEhKmSQ-23" vertex="1">
          <mxGeometry y="60" width="350" height="60" as="geometry" />
        </mxCell>
        <mxCell id="cBSK1kLoFD2XCnEhKmSQ-27" value="MemberController" style="swimlane;fontStyle=1;align=center;verticalAlign=top;childLayout=stackLayout;horizontal=1;startSize=26;horizontalStack=0;resizeParent=1;resizeParentMax=0;resizeLast=0;collapsible=1;marginBottom=0;fillColor=#ffe6cc;strokeColor=#d79b00;" parent="1" vertex="1">
          <mxGeometry x="30" y="341" width="350" height="130" as="geometry" />
        </mxCell>
        <mxCell id="cBSK1kLoFD2XCnEhKmSQ-28" value="-memberService : MemberService" style="text;strokeColor=none;fillColor=none;align=left;verticalAlign=top;spacingLeft=4;spacingRight=4;overflow=hidden;rotatable=0;points=[[0,0.5],[1,0.5]];portConstraint=eastwest;" parent="cBSK1kLoFD2XCnEhKmSQ-27" vertex="1">
          <mxGeometry y="26" width="350" height="26" as="geometry" />
        </mxCell>
        <mxCell id="cBSK1kLoFD2XCnEhKmSQ-29" value="" style="line;strokeWidth=1;fillColor=none;align=left;verticalAlign=middle;spacingTop=-1;spacingLeft=3;spacingRight=3;rotatable=0;labelPosition=right;points=[];portConstraint=eastwest;strokeColor=inherit;" parent="cBSK1kLoFD2XCnEhKmSQ-27" vertex="1">
          <mxGeometry y="52" width="350" height="8" as="geometry" />
        </mxCell>
        <mxCell id="cBSK1kLoFD2XCnEhKmSQ-30" value="+ memberJoin(MemberDTO) : String&#xa;+ memberJoin() : void&#xa;" style="text;strokeColor=none;fillColor=none;align=left;verticalAlign=top;spacingLeft=4;spacingRight=4;overflow=hidden;rotatable=0;points=[[0,0.5],[1,0.5]];portConstraint=eastwest;" parent="cBSK1kLoFD2XCnEhKmSQ-27" vertex="1">
          <mxGeometry y="60" width="350" height="70" as="geometry" />
        </mxCell>
        <mxCell id="cBSK1kLoFD2XCnEhKmSQ-31" value="" style="edgeStyle=orthogonalEdgeStyle;rounded=0;orthogonalLoop=1;jettySize=auto;html=1;" parent="1" target="cBSK1kLoFD2XCnEhKmSQ-26" edge="1">
          <mxGeometry relative="1" as="geometry">
            <mxPoint x="380" y="416" as="sourcePoint" />
            <Array as="points">
              <mxPoint x="400" y="416" />
              <mxPoint x="400" y="416" />
            </Array>
          </mxGeometry>
        </mxCell>
        <mxCell id="cBSK1kLoFD2XCnEhKmSQ-32" value="" style="edgeStyle=orthogonalEdgeStyle;rounded=0;orthogonalLoop=1;jettySize=auto;html=1;" parent="1" source="cBSK1kLoFD2XCnEhKmSQ-26" target="cBSK1kLoFD2XCnEhKmSQ-22" edge="1">
          <mxGeometry relative="1" as="geometry">
            <Array as="points">
              <mxPoint x="810" y="416" />
              <mxPoint x="810" y="416" />
            </Array>
          </mxGeometry>
        </mxCell>
        <mxCell id="cBSK1kLoFD2XCnEhKmSQ-33" value="참조" style="text;html=1;align=center;verticalAlign=middle;resizable=0;points=[];autosize=1;strokeColor=none;fillColor=none;" parent="1" vertex="1">
          <mxGeometry x="380" y="416" width="50" height="30" as="geometry" />
        </mxCell>
        <mxCell id="cBSK1kLoFD2XCnEhKmSQ-34" value="참조" style="text;html=1;align=center;verticalAlign=middle;resizable=0;points=[];autosize=1;strokeColor=none;fillColor=none;" parent="1" vertex="1">
          <mxGeometry x="790" y="416" width="50" height="30" as="geometry" />
        </mxCell>
        <mxCell id="O9G9yN9CU8fzKZNAB0jn-1" value="Bankbook" style="text;html=1;align=center;verticalAlign=middle;resizable=0;points=[];autosize=1;strokeColor=none;fillColor=none;fontStyle=1" parent="1" vertex="1">
          <mxGeometry x="20" y="560" width="80" height="30" as="geometry" />
        </mxCell>
        <mxCell id="O9G9yN9CU8fzKZNAB0jn-2" value="BankbookDAO" style="swimlane;fontStyle=1;align=center;verticalAlign=top;childLayout=stackLayout;horizontal=1;startSize=26;horizontalStack=0;resizeParent=1;resizeParentMax=0;resizeLast=0;collapsible=1;marginBottom=0;fillColor=#dae8fc;strokeColor=#6c8ebf;" parent="1" vertex="1">
          <mxGeometry x="850" y="600" width="270" height="160" as="geometry" />
        </mxCell>
        <mxCell id="O9G9yN9CU8fzKZNAB0jn-3" value="- sqlSession : SqlSession&#xa;- NAMESPACE : String&#xa;" style="text;strokeColor=none;fillColor=none;align=left;verticalAlign=top;spacingLeft=4;spacingRight=4;overflow=hidden;rotatable=0;points=[[0,0.5],[1,0.5]];portConstraint=eastwest;" parent="O9G9yN9CU8fzKZNAB0jn-2" vertex="1">
          <mxGeometry y="26" width="270" height="34" as="geometry" />
        </mxCell>
        <mxCell id="O9G9yN9CU8fzKZNAB0jn-4" value="" style="line;strokeWidth=1;fillColor=none;align=left;verticalAlign=middle;spacingTop=-1;spacingLeft=3;spacingRight=3;rotatable=0;labelPosition=right;points=[];portConstraint=eastwest;strokeColor=inherit;" parent="O9G9yN9CU8fzKZNAB0jn-2" vertex="1">
          <mxGeometry y="60" width="270" height="8" as="geometry" />
        </mxCell>
        <mxCell id="O9G9yN9CU8fzKZNAB0jn-5" value="+ getBankbookList() : List&lt;BankbookDTO&gt;&#xa;+ getBankbookDetail(BankbookDTO) : BankbookDTO&#xa;+ setBankbookAdd(BankbookDTO) : int&#xa;+ setBankbookUpdate(BankbookDTO) : int&#xa;+ setBankbookDelete(BankbookDTO) : int" style="text;strokeColor=none;fillColor=none;align=left;verticalAlign=top;spacingLeft=4;spacingRight=4;overflow=hidden;rotatable=0;points=[[0,0.5],[1,0.5]];portConstraint=eastwest;" parent="O9G9yN9CU8fzKZNAB0jn-2" vertex="1">
          <mxGeometry y="68" width="270" height="92" as="geometry" />
        </mxCell>
        <mxCell id="O9G9yN9CU8fzKZNAB0jn-6" value="BankbookService" style="swimlane;fontStyle=1;align=center;verticalAlign=top;childLayout=stackLayout;horizontal=1;startSize=26;horizontalStack=0;resizeParent=1;resizeParentMax=0;resizeLast=0;collapsible=1;marginBottom=0;fillColor=#d5e8d4;strokeColor=#82b366;" parent="1" vertex="1">
          <mxGeometry x="440" y="600" width="350" height="160" as="geometry" />
        </mxCell>
        <mxCell id="O9G9yN9CU8fzKZNAB0jn-7" value="- BankbookDAO : BankbookDAO" style="text;strokeColor=none;fillColor=none;align=left;verticalAlign=top;spacingLeft=4;spacingRight=4;overflow=hidden;rotatable=0;points=[[0,0.5],[1,0.5]];portConstraint=eastwest;" parent="O9G9yN9CU8fzKZNAB0jn-6" vertex="1">
          <mxGeometry y="26" width="350" height="26" as="geometry" />
        </mxCell>
        <mxCell id="O9G9yN9CU8fzKZNAB0jn-8" value="" style="line;strokeWidth=1;fillColor=none;align=left;verticalAlign=middle;spacingTop=-1;spacingLeft=3;spacingRight=3;rotatable=0;labelPosition=right;points=[];portConstraint=eastwest;strokeColor=inherit;" parent="O9G9yN9CU8fzKZNAB0jn-6" vertex="1">
          <mxGeometry y="52" width="350" height="8" as="geometry" />
        </mxCell>
        <mxCell id="O9G9yN9CU8fzKZNAB0jn-9" value="+ getBankbookList() : List&lt;BankbookDTO&gt;&#xa;+ getBankbookDetail(BankbookDTO) : BankbookDTO&#xa;+ setBankbookAdd(BankbookDTO) : int&#xa;+ setBankbookUpdate(BankbookDTO) : int&#xa;+ setBankbookDelete(BankbookDTO) : int" style="text;strokeColor=none;fillColor=none;align=left;verticalAlign=top;spacingLeft=4;spacingRight=4;overflow=hidden;rotatable=0;points=[[0,0.5],[1,0.5]];portConstraint=eastwest;" parent="O9G9yN9CU8fzKZNAB0jn-6" vertex="1">
          <mxGeometry y="60" width="350" height="100" as="geometry" />
        </mxCell>
        <mxCell id="O9G9yN9CU8fzKZNAB0jn-10" value="BankbookController" style="swimlane;fontStyle=1;align=center;verticalAlign=top;childLayout=stackLayout;horizontal=1;startSize=26;horizontalStack=0;resizeParent=1;resizeParentMax=0;resizeLast=0;collapsible=1;marginBottom=0;fillColor=#ffe6cc;strokeColor=#d79b00;" parent="1" vertex="1">
          <mxGeometry x="30" y="600" width="350" height="160" as="geometry" />
        </mxCell>
        <mxCell id="O9G9yN9CU8fzKZNAB0jn-11" value="-BankbookService : BankbookService" style="text;strokeColor=none;fillColor=none;align=left;verticalAlign=top;spacingLeft=4;spacingRight=4;overflow=hidden;rotatable=0;points=[[0,0.5],[1,0.5]];portConstraint=eastwest;" parent="O9G9yN9CU8fzKZNAB0jn-10" vertex="1">
          <mxGeometry y="26" width="350" height="26" as="geometry" />
        </mxCell>
        <mxCell id="O9G9yN9CU8fzKZNAB0jn-12" value="" style="line;strokeWidth=1;fillColor=none;align=left;verticalAlign=middle;spacingTop=-1;spacingLeft=3;spacingRight=3;rotatable=0;labelPosition=right;points=[];portConstraint=eastwest;strokeColor=inherit;" parent="O9G9yN9CU8fzKZNAB0jn-10" vertex="1">
          <mxGeometry y="52" width="350" height="8" as="geometry" />
        </mxCell>
        <mxCell id="O9G9yN9CU8fzKZNAB0jn-13" value="+ getBankbookList() : ModelAndView&#xa;+ getBankbookDetail(BankbookDTO) : ModelAndView&#xa;+ setBankbookAdd(BankbookDTO) : ModelAndView&#xa;+ setBankbookUpdate(BankbookDTO) : ModelAndView&#xa;+ setBankbookDelete(BankbookDTO) : ModelAndView" style="text;strokeColor=none;fillColor=none;align=left;verticalAlign=top;spacingLeft=4;spacingRight=4;overflow=hidden;rotatable=0;points=[[0,0.5],[1,0.5]];portConstraint=eastwest;" parent="O9G9yN9CU8fzKZNAB0jn-10" vertex="1">
          <mxGeometry y="60" width="350" height="100" as="geometry" />
        </mxCell>
        <mxCell id="O9G9yN9CU8fzKZNAB0jn-14" value="" style="edgeStyle=orthogonalEdgeStyle;rounded=0;orthogonalLoop=1;jettySize=auto;html=1;" parent="1" target="O9G9yN9CU8fzKZNAB0jn-9" edge="1">
          <mxGeometry relative="1" as="geometry">
            <mxPoint x="380" y="665" as="sourcePoint" />
            <Array as="points">
              <mxPoint x="400" y="665" />
              <mxPoint x="400" y="665" />
            </Array>
          </mxGeometry>
        </mxCell>
        <mxCell id="O9G9yN9CU8fzKZNAB0jn-15" value="" style="edgeStyle=orthogonalEdgeStyle;rounded=0;orthogonalLoop=1;jettySize=auto;html=1;entryX=0.008;entryY=0.569;entryDx=0;entryDy=0;entryPerimeter=0;" parent="1" source="O9G9yN9CU8fzKZNAB0jn-9" target="O9G9yN9CU8fzKZNAB0jn-4" edge="1">
          <mxGeometry relative="1" as="geometry">
            <Array as="points">
              <mxPoint x="840" y="665" />
            </Array>
          </mxGeometry>
        </mxCell>
        <mxCell id="O9G9yN9CU8fzKZNAB0jn-16" value="참조" style="text;html=1;align=center;verticalAlign=middle;resizable=0;points=[];autosize=1;strokeColor=none;fillColor=none;" parent="1" vertex="1">
          <mxGeometry x="380" y="665" width="50" height="30" as="geometry" />
        </mxCell>
        <mxCell id="O9G9yN9CU8fzKZNAB0jn-17" value="참조" style="text;html=1;align=center;verticalAlign=middle;resizable=0;points=[];autosize=1;strokeColor=none;fillColor=none;" parent="1" vertex="1">
          <mxGeometry x="790" y="665" width="50" height="30" as="geometry" />
        </mxCell>
      </root>
    </mxGraphModel>
  </diagram>
</mxfile>
